Coordinates
version=1
nRows=6
nColumns=36
inDegrees=yes

Units are S.I. units (second, meters, Newtons, ...)
If the header above contains a line with 'inDegrees', this indicates whether rotational values are in degrees (yes) or radians (no).

endheader
time	pelvis_tilt	pelvis_list	pelvis_rotation	pelvis_tx	pelvis_ty	pelvis_tz	hip_flexion_r	hip_adduction_r	hip_rotation_r	knee_angle_r	knee_angle_r_beta	ankle_angle_r	subtalar_angle_r	mtp_angle_r	hip_flexion_l	hip_adduction_l	hip_rotation_l	knee_angle_l	knee_angle_l_beta	ankle_angle_l	subtalar_angle_l	mtp_angle_l	lumbar_extension	lumbar_bending	lumbar_rotation	arm_flex_r	arm_add_r	arm_rot_r	elbow_flex_r	pro_sup_r	arm_flex_l	arm_add_l	arm_rot_l	elbow_flex_l	pro_sup_l
      1.40833330	     -3.18568764	      0.91232414	     -2.06600928	     -1.09505368	      1.27805510	     -0.06354220	      7.08724601	     -0.82782872	      3.47599170	     10.30345999	      0.17982930	     10.41383397	    -10.39995467	     -7.49999987	      1.38076921	     -1.24180533	     -0.16224474	      1.14607020	      0.02000270	      6.63296841	     -7.74758001	     -7.49999987	     -9.52786857	      1.08407906	     -0.18949767	      0.83908955	     -6.67651732	     -1.38463161	     27.80368456	     73.11895349	      3.83617442	    -11.91898356	     21.51416147	     29.28593222	     72.67222653
      1.41250000	     -3.25587929	      0.96961044	     -1.99962551	     -1.10055592	      1.27748815	     -0.06807354	      7.29878587	     -0.92515341	      3.40114424	     10.33419029	      0.18036565	     10.35708658	    -10.41277894	     -7.49999987	      1.54910991	     -1.14631776	     -0.25607808	      1.09073426	      0.01903690	      6.66180123	     -7.78578812	     -7.49999987	     -9.71721243	      1.06595510	     -0.33304581	      0.79233929	     -6.83817086	     -1.40948767	     27.76889640	     73.12478968	      4.00276076	    -11.99182172	     21.50918125	     29.33124022	     72.69282282
      1.41666670	     -3.64929307	      1.18696403	     -1.92741274	     -1.09462517	      1.27735381	     -0.07302055	      8.13177369	     -1.30171272	      3.07925454	     10.91421476	      0.19048898	     10.29489632	    -10.33410027	     -7.49999987	      2.15726887	     -0.84607598	     -0.28285584	      1.26883994	      0.02214543	      6.54889616	     -7.78822088	     -7.49999987	     -9.45582792	      0.89690206	     -0.52756876	      0.62982093	     -6.98987435	     -1.62525082	     27.87858347	     73.24521426	      3.81861214	    -12.19088208	     21.84858892	     30.01801142	     73.22528748
      1.42083330	     -3.74910425	      1.32026815	     -1.96972181	     -1.10074441	      1.28054280	     -0.06813073	      8.60522018	     -1.51413968	      2.89173379	     11.27675506	      0.19681650	     10.07971382	    -10.26925110	     -7.49999987	      2.34440138	     -0.63717713	     -0.33942410	      1.25057322	      0.02182662	      6.51946254	     -7.77230490	     -7.49999987	     -9.66204804	      0.78610647	     -0.65167641	      0.69390842	     -7.18484996	     -1.70184149	     27.95258008	     73.25620681	      3.95480481	    -12.30543776	     21.85821026	     30.12854040	     73.30963462
      1.42500000	     -4.13212190	      1.46930317	     -1.99838960	     -1.10117506	      1.28015144	     -0.06778594	      9.52943254	     -1.72345447	      2.71449425	     11.93500929	      0.20830521	     10.23157082	    -10.03303709	     -7.49999987	      2.92206143	     -0.44047471	     -0.42195583	      1.42069334	      0.02479578	      6.42049039	     -7.84847971	     -7.49999987	     -9.42946243	      0.67360744	     -0.73337159	      0.56105261	     -7.20799773	     -2.04216540	     28.08177390	     71.52581182	      3.76228365	    -12.47295132	     21.93648018	     30.73418582	     72.52317972
      1.42916670	     -4.41555931	      1.59735940	     -2.11911075	     -1.10676426	      1.27523121	     -0.06272743	     10.40902989	     -1.78202671	      2.67029131	     12.59125934	      0.21975893	     10.38929278	     -9.90051679	     -7.49999987	      3.48665261	     -0.33362619	     -0.55040025	      1.66507164	      0.02906098	      6.45912620	     -7.96874156	     -7.49999987	     -9.61176356	      0.49636732	     -0.82175153	      0.48961392	     -7.16024181	     -2.96610744	     28.54898700	     74.72288825	      3.61756135	    -12.64670903	     20.30112339	     31.37670294	     79.61369372
